<svg width="32" height="16" viewBox="0 0 32 16" fill="none" xmlns="http://www.w3.org/2000/svg">
<g clip-path="url(#clip0_2_2)">
<path d="M9 7H10.5L13 10.077L15.501 7H17L13.749 10.999L17 15H15.503L13 11.921L10.497 15H9L12.251 10.999L9 7Z" fill="white" stroke="#0D1117" stroke-opacity="0.25" stroke-width="2"/>
<path d="M28.5 15H27.5V2.6L26 5C26.321 5 24.5 5 24.5 5L27.5 0.999999L28 0.279999L28.5 0.999999L31.5 5H30L28.5 2.6V15ZM21.5 0.999999H22.5V6H21.5V0.999999ZM20 0.999999V2H6.646C7.476 2.733 8 3.805 8 5V11C8 13.209 6.21 15 4.001 15C1.792 15 0 13.209 0 11V5C0 2.791 1.791 0.999999 4 0.999999H20ZM1 11C1 12.657 2.343 14 4.001 14C5.43 14 6.627 12.998 6.928 11.658L1 5.73V11ZM7 5C7 3.343 5.657 2 4 2C2.555 2 1.35 3.021 1.064 4.38L7 10.316V5ZM25.502 13H24L22.507 10.609V15H21.507V10.591L20 13H18.502L21.502 9L22.002 8.28L22.502 9H22.507V9.007L25.502 13Z" fill="url(#paint0_linear_2_2)"/>
<path d="M8.993 6.997H10.493L12.993 10.074L15.494 6.997H16.993L13.742 10.996L16.993 14.997H15.496L12.993 11.918L10.49 14.997H8.993L12.244 10.996L8.993 6.997Z" fill="white"/>
</g>
<defs>
<linearGradient id="paint0_linear_2_2" x1="15.75" y1="0.279999" x2="15.75" y2="15" gradientUnits="userSpaceOnUse">
<stop stop-color="#FF0505"/>
<stop offset="1" stop-color="#FFDDAA"/>
</linearGradient>
<clipPath id="clip0_2_2">
<rect width="32" height="16" fill="white"/>
</clipPath>
</defs>
</svg>
